<svg width="128" height="36" viewBox="0 0 128 36" fill="none" xmlns="http://www.w3.org/2000/svg">
<g clip-path="url(#clip0_1886_2019)">
<path fill-rule="evenodd" clip-rule="evenodd" d="M38.7147 20.2316C38.2993 16.7624 38.0756 13.261 34.4639 8.12133C30.5647 2.59621 23.8529 0.636719 20.3691 0.636719C16.8854 0.636719 12.3788 2.08225 9.98175 3.75263C6.46606 6.22608 4.1329 8.69952 2.11936 14.5459C0.617188 18.9788 0.617188 29.1939 0.617188 29.1939C0.617188 29.1939 13.9769 35.4256 13.9769 35.3614C13.9769 33.916 13.5614 25.7246 14.7759 21.1632C16.4379 15.2205 21.7114 11.5263 25.7385 11.8797C30.6286 12.2973 32.4504 14.5459 33.537 16.0234C35.3268 18.2721 36.1899 21.9663 36.1899 27.1058C36.1899 28.1338 36.2538 34.7833 36.2538 34.7833L38.7787 31.0891C38.8426 31.0248 39.1302 23.7009 38.7147 20.2316ZM27.6563 17.469C26.4416 17.469 21.7434 17.6297 20.6568 25.6604V32.342C20.8166 32.4062 26.9211 35.3293 27.0169 35.3293V27.9733C27.0169 25.4997 28.1676 24.6324 29.478 24.5682C31.14 24.5682 32.2266 25.7246 32.2266 27.9733V34.2692L34.6876 35.2009C34.6876 35.2009 34.6876 28.5193 34.6237 27.1379C34.5278 22.3838 32.3545 17.469 27.6563 17.469Z" fill="url(#paint0_linear_1886_2019)"/>
<path d="M97.0734 30.7986C95.2516 32.3084 93.1741 33.4328 90.937 34.2037C88.6676 35.0068 86.2704 35.3923 83.8735 35.3601C82.1158 35.3923 80.358 35.1352 78.6958 34.6213C77.1616 34.1395 75.7236 33.4006 74.4451 32.4369C72.8786 31.2483 71.6002 29.7066 70.7054 27.9397C69.8747 26.1087 69.4592 24.0849 69.4909 22.0612C69.4909 20.1661 69.9064 18.335 70.7054 16.6326C71.5363 14.93 72.7191 13.4202 74.1571 12.1996C75.4678 11.1074 77.002 10.3044 78.6319 9.79037C80.3579 9.27638 82.1475 8.9873 83.9693 8.9873C86.4304 8.9873 88.6037 9.43703 90.3936 10.3686C92.3112 11.3965 93.941 12.842 95.1556 14.6409L91.736 17.018C91.0648 15.5725 90.0418 14.2875 88.7633 13.3239C87.581 12.5208 86.1746 12.0711 84.7366 12.1032C82.435 12.1032 80.6133 12.9705 79.3987 14.7051C78.1843 16.4397 77.513 18.9132 77.513 22.1577C77.513 25.0487 78.2482 27.4579 79.6868 29.2567C81.1249 31.0557 82.9465 32.0193 85.2476 32.0193C86.0468 32.0193 86.8458 31.8908 87.645 31.6661C88.4118 31.409 89.147 31.0235 89.8182 30.5738V23.5389H97.1052L97.0734 30.7986Z" fill="url(#paint1_linear_1886_2019)"/>
<path d="M106.857 29.9939C106.857 31.0219 107.08 31.7285 107.432 32.114C107.783 32.4995 108.518 32.6923 109.509 32.6923H110.947V35.2299H106.025C104.236 35.2299 102.925 34.8766 102.19 34.1379C101.455 33.399 101.104 32.0177 101.104 30.1545V8.18262H106.889V29.9939H106.857Z" fill="url(#paint2_linear_1886_2019)"/>
<path d="M112.797 18.0439H118.582V28.2589C118.582 29.7687 118.806 30.8609 119.221 31.4392C119.637 32.0173 120.372 32.3707 121.394 32.3707C122.481 32.3707 123.184 32.0816 123.632 31.4392C124.079 30.7967 124.271 29.7687 124.271 28.2589V18.0439H127.148V28.8372C127.148 31.0215 126.572 32.5955 125.358 33.6877C124.207 34.7799 122.385 35.2938 119.956 35.2938C117.527 35.2938 115.706 34.7799 114.555 33.6877C113.404 32.5955 112.829 31.0215 112.829 28.773L112.797 18.0439Z" fill="url(#paint3_linear_1886_2019)"/>
<path fill-rule="evenodd" clip-rule="evenodd" d="M61.3753 31.7334C58.9141 32.2475 56.1976 30.3522 55.5263 28.9066C55.5263 28.8424 67.5757 25.1483 67.5757 25.1483C67.5757 25.1483 66.8406 20.0729 60.9276 18.5631C56.1019 17.4066 50.7641 19.4947 49.7415 25.5338C48.7187 31.5728 53.193 33.7892 56.3894 34.753C59.6493 35.6845 63.1649 34.8493 65.6261 32.5044C65.69 32.4401 64.252 30.3201 64.252 30.3201C64.252 30.3201 62.7494 31.4443 61.3753 31.7334ZM56.1658 21.9039C57.7636 20.4583 59.7132 20.7475 60.3526 20.8117C62.3022 20.8117 64.3798 22.996 64.1879 23.5743C64.124 23.6385 54.8874 26.5616 54.8874 26.5616C54.6634 26.4011 54.3119 23.5422 56.1658 21.9039Z" fill="url(#paint4_linear_1886_2019)"/>
</g>
<defs>
<linearGradient id="paint0_linear_1886_2019" x1="19.7762" y1="0.636719" x2="19.7762" y2="35.362" gradientUnits="userSpaceOnUse">
<stop stop-color="#9B805B"/>
<stop offset="0.5" stop-color="#EACA9E"/>
<stop offset="1" stop-color="#9B805B"/>
</linearGradient>
<linearGradient id="paint1_linear_1886_2019" x1="83.2972" y1="8.9873" x2="83.2972" y2="35.3628" gradientUnits="userSpaceOnUse">
<stop stop-color="#9B805B"/>
<stop offset="0.4875" stop-color="#EACA9E"/>
<stop offset="1" stop-color="#9B805B"/>
</linearGradient>
<linearGradient id="paint2_linear_1886_2019" x1="106.025" y1="8.18262" x2="106.025" y2="35.2299" gradientUnits="userSpaceOnUse">
<stop stop-color="#9B805B"/>
<stop offset="0.4875" stop-color="#EACA9E"/>
<stop offset="1" stop-color="#9B805B"/>
</linearGradient>
<linearGradient id="paint3_linear_1886_2019" x1="119.972" y1="18.0439" x2="119.972" y2="35.2938" gradientUnits="userSpaceOnUse">
<stop stop-color="#9B805B"/>
<stop offset="0.4875" stop-color="#EACA9E"/>
<stop offset="1" stop-color="#9B805B"/>
</linearGradient>
<linearGradient id="paint4_linear_1886_2019" x1="58.5845" y1="18.2578" x2="58.5845" y2="35.1263" gradientUnits="userSpaceOnUse">
<stop stop-color="#9B805B"/>
<stop offset="0.4875" stop-color="#EACA9E"/>
<stop offset="1" stop-color="#9B805B"/>
</linearGradient>
<clipPath id="clip0_1886_2019">
<rect width="126.649" height="34.7265" fill="white" transform="translate(0.617188 0.636719)"/>
</clipPath>
</defs>
</svg>
