<svg xmlns="http://www.w3.org/2000/svg" viewBox="0 0 40 36" fill="none">
    <path d="M38.7147 20.2316C38.2993 16.7624 38.0756 13.261 34.4639 8.12133C30.5647 2.59621 23.8529 0.636719 20.3691 0.636719C16.8854 0.636719 12.3788 2.08225 9.98175 3.75263C6.46606 6.22608 4.1329 8.69952 2.11936 14.5459C0.617188 18.9788 0.617188 29.1939 0.617188 29.1939C0.617188 29.1939 13.9769 35.4256 13.9769 35.3614C13.9769 33.916 13.5614 25.7246 14.7759 21.1632C16.4379 15.2205 21.7114 11.5263 25.7385 11.8797C30.6286 12.2973 32.4504 14.5459 33.537 16.0234C35.3268 18.2721 36.1899 21.9663 36.1899 27.1058C36.1899 28.1338 36.2538 34.7833 36.2538 34.7833L38.7787 31.0891C38.8426 31.0248 39.1302 23.7009 38.7147 20.2316ZM27.6563 17.469C26.4416 17.469 21.7434 17.6297 20.6568 25.6604V32.342C20.8166 32.4062 26.9211 35.3293 27.0169 35.3293V27.9733C27.0169 25.4997 28.1676 24.6324 29.478 24.5682C31.14 24.5682 32.2266 25.7246 32.2266 27.9733V34.2692L34.6876 35.2009C34.6876 35.2009 34.6876 28.5193 34.6237 27.1379C34.5278 22.3838 32.3545 17.469 27.6563 17.469Z" 
          fill="#d97706" />
</svg>
